<svg width="18" height="18" viewBox="0 0 18 18" fill="none" xmlns="http://www.w3.org/2000/svg">
<path fill-rule="evenodd" clip-rule="evenodd" d="M15.2695 2.13158C15.9132 2.13081 16.5239 2.41124 16.936 2.89682C17.3488 3.38111 17.5212 4.02047 17.4064 4.64187L16.8383 7.7355C16.5277 9.42728 15.0281 10.658 13.2773 10.6579H4.65152C4.95743 11.5075 5.77442 12.5501 6.69218 12.5526H14.2491C14.6488 12.5526 14.9728 12.8707 14.9728 13.2632C14.9728 13.6556 14.6488 13.9737 14.2491 13.9737H6.69218C4.85708 13.9737 3.31256 12.1512 3.09859 10.3616L2.10286 2.04845C2.05994 1.6907 1.75115 1.4211 1.38429 1.42105H1.22364C0.823984 1.42105 0.5 1.10294 0.5 0.710526C0.5 0.318113 0.823984 0 1.22364 0H1.38429C2.48461 0.000502661 3.41055 0.809219 3.53928 1.88218L3.56968 2.13158H15.2695ZM13.2773 9.23684C14.329 9.23841 15.2306 8.49955 15.4171 7.48326L15.9859 4.38963C16.0242 4.18169 15.9662 3.96779 15.8278 3.80601C15.6893 3.64423 15.4847 3.55137 15.2695 3.55263H3.74045L4.4214 9.23684H13.2773ZM7.01275 16.5789C7.01275 17.3638 6.36478 18 5.56547 18C4.76616 18 4.11819 17.3638 4.11819 16.5789C4.11819 15.7941 4.76616 15.1579 5.56547 15.1579C6.36478 15.1579 7.01275 15.7941 7.01275 16.5789ZM12.8019 18C13.6012 18 14.2491 17.3638 14.2491 16.5789C14.2491 15.7941 13.6012 15.1579 12.8019 15.1579C12.0026 15.1579 11.3546 15.7941 11.3546 16.5789C11.3546 17.3638 12.0026 18 12.8019 18Z" fill="white"/>
</svg>
